<?xml version="1.0" encoding="UTF-8"?>
<svg version="1.1" xmlns="http://www.w3.org/2000/svg" width="192" height="192">
<path d="M0 0 C63.36 0 126.72 0 192 0 C192 63.36 192 126.72 192 192 C128.64 192 65.28 192 0 192 C0 128.64 0 65.28 0 0 Z " fill="#FEFEFE" transform="translate(0,0)"/>
<path d="M0 0 C1.8984375 1.1015625 1.8984375 1.1015625 4.4609375 3.1015625 C4.4609375 3.7615625 4.4609375 4.4215625 4.4609375 5.1015625 C5.1209375 5.1015625 5.7809375 5.1015625 6.4609375 5.1015625 C12.57003907 13.38462363 16.69308187 22.58201815 20.4609375 32.1015625 C23.91776585 29.40355013 26.85030513 26.73094941 29.6484375 23.3515625 C35.82798919 16.13066728 43.81079732 8.20658275 53.5703125 6.796875 C60.84680692 6.37032188 66.48624172 8.92011893 72.2734375 13.1640625 C83.02897019 27.6072064 80.63637013 50.02716247 80.7109375 67.2265625 C80.71629517 67.92058167 80.72165283 68.61460083 80.72717285 69.32965088 C80.86529736 92.89104153 80.86529736 92.89104153 75.5234375 102.6640625 C75.01941406 103.61410156 74.51539063 104.56414062 73.99609375 105.54296875 C72.59785764 107.87336227 71.23756821 110.04415636 69.4609375 112.1015625 C68.8009375 112.1015625 68.1409375 112.1015625 67.4609375 112.1015625 C66.9659375 113.5865625 66.9659375 113.5865625 66.4609375 115.1015625 C56.39587211 124.29797309 45.66229057 127.87049118 32.15625 127.49609375 C25.63355043 126.79969559 19.45052354 125.05309783 13.9296875 121.44921875 C11.06177733 119.88366652 9.77470087 119.88292635 6.5859375 120.3515625 C5.71324219 120.46886719 4.84054688 120.58617187 3.94140625 120.70703125 C3.12285156 120.83722656 2.30429688 120.96742188 1.4609375 121.1015625 C-12.75824809 123.34669707 -25.68680881 121.98584671 -37.73046875 113.5703125 C-46.01053503 106.9085514 -50.06422068 98.25019444 -52.5390625 88.1015625 C-52.71083008 87.49086914 -52.88259766 86.88017578 -53.05957031 86.25097656 C-54.7518801 78.66487912 -53.21372822 71.29815103 -51.1015625 63.9765625 C-50.70275879 62.56636841 -50.70275879 62.56636841 -50.29589844 61.12768555 C-45.93006245 46.14268281 -40.59302584 31.47804064 -33.4140625 17.6015625 C-33.03088867 16.85495361 -32.64771484 16.10834473 -32.25292969 15.33911133 C-25.24604301 2.38050309 -15.30618769 -5.41603565 0 0 Z " fill="#FEFEFD" transform="translate(79.5390625,32.8984375)"/>
<path d="M0 0 C10.44757348 5.07324534 14.68186088 16.92813988 19 27 C19.41636719 27.89203125 19.83273438 28.7840625 20.26171875 29.703125 C21.14997127 32.46657729 21.20644883 33.36276269 20 36 C18.33831393 38.09579437 16.65918034 40.0776913 14.875 42.0625 C2.30573175 56.47773308 -4.06914865 69.38692193 -3.2265625 88.55224609 C-2.47398547 96.68299749 1.72845855 103.34581701 6.86328125 109.4765625 C8 111 8 111 8 113 C-1.96767158 116.85845352 -14.48439675 116.27209937 -24.296875 112 C-34.6263289 106.73128526 -40.69634308 98.63060612 -44.81640625 87.8671875 C-49.28327329 72.43619226 -42.77282457 56.00039604 -36.77783203 41.89453125 C-35.70463624 39.28059549 -34.75320152 36.62803713 -33.79711914 33.96948242 C-20.07025501 -3.99950734 -20.07025501 -3.99950734 0 0 Z " fill="#FDFEFD" transform="translate(76,36)"/>
<path d="M0 0 C1.8984375 1.1015625 1.8984375 1.1015625 4.4609375 3.1015625 C4.4609375 3.7615625 4.4609375 4.4215625 4.4609375 5.1015625 C5.1209375 5.1015625 5.7809375 5.1015625 6.4609375 5.1015625 C12.57003907 13.38462363 16.69308187 22.58201815 20.4609375 32.1015625 C23.91776585 29.40355013 26.85030513 26.73094941 29.6484375 23.3515625 C35.82798919 16.13066728 43.81079732 8.20658275 53.5703125 6.796875 C60.84680692 6.37032188 66.48624172 8.92011893 72.2734375 13.1640625 C83.02897019 27.6072064 80.63637013 50.02716247 80.7109375 67.2265625 C80.71629517 67.92058167 80.72165283 68.61460083 80.72717285 69.32965088 C80.86529736 92.89104153 80.86529736 92.89104153 75.5234375 102.6640625 C75.01941406 103.61410156 74.51539063 104.56414062 73.99609375 105.54296875 C72.59785764 107.87336227 71.23756821 110.04415636 69.4609375 112.1015625 C68.8009375 112.1015625 68.1409375 112.1015625 67.4609375 112.1015625 C66.9659375 113.5865625 66.9659375 113.5865625 66.4609375 115.1015625 C56.39587211 124.29797309 45.66229057 127.87049118 32.15625 127.49609375 C25.63355043 126.79969559 19.45052354 125.05309783 13.9296875 121.44921875 C11.06177733 119.88366652 9.77470087 119.88292635 6.5859375 120.3515625 C5.71324219 120.46886719 4.84054688 120.58617187 3.94140625 120.70703125 C3.12285156 120.83722656 2.30429688 120.96742188 1.4609375 121.1015625 C-12.75824809 123.34669707 -25.68680881 121.98584671 -37.73046875 113.5703125 C-46.01053503 106.9085514 -50.06422068 98.25019444 -52.5390625 88.1015625 C-52.71083008 87.49086914 -52.88259766 86.88017578 -53.05957031 86.25097656 C-54.7518801 78.66487912 -53.21372822 71.29815103 -51.1015625 63.9765625 C-50.70275879 62.56636841 -50.70275879 62.56636841 -50.29589844 61.12768555 C-45.93006245 46.14268281 -40.59302584 31.47804064 -33.4140625 17.6015625 C-33.03088867 16.85495361 -32.64771484 16.10834473 -32.25292969 15.33911133 C-25.24604301 2.38050309 -15.30618769 -5.41603565 0 0 Z M-23.10546875 7.8828125 C-36.05929668 27.93124373 -53.55326077 63.15954652 -49.078125 87.62109375 C-46.56139559 97.0218183 -41.43050669 106.20548348 -33.5390625 112.1015625 C-25.42709037 116.65419992 -18.32055162 118.24190046 -9.0390625 118.2890625 C-7.770625 118.30324219 -6.5021875 118.31742187 -5.1953125 118.33203125 C-1.61792522 118.10653355 1.1372681 117.39922972 4.4609375 116.1015625 C2.87035399 111.75599701 0.69038189 108.40368377 -2.00390625 104.67578125 C-6.00811576 97.96134342 -7.04154877 91.92106054 -6.9765625 84.1640625 C-7.0065332 82.90045898 -7.0065332 82.90045898 -7.03710938 81.61132812 C-7.03223628 75.28118075 -5.49914306 70.65857042 -2.5390625 65.1015625 C-1.85263672 63.77511719 -1.85263672 63.77511719 -1.15234375 62.421875 C3.1861793 55.09980306 8.38612858 48.48128909 14.18359375 42.25 C15.74947727 40.61181463 15.74947727 40.61181463 17.4609375 38.1015625 C17.07371872 33.59207711 15.13233707 29.52102032 13.3359375 25.4140625 C13.0275293 24.70870361 12.71912109 24.00334473 12.40136719 23.27661133 C9.23361554 16.25668752 5.32471707 9.24008513 -0.5390625 4.1015625 C-8.38569783 1.48601739 -17.64134819 1.01518965 -23.10546875 7.8828125 Z M25.66796875 33.32421875 C23.40434231 36.17278229 21.00540167 38.81703946 18.5234375 41.4765625 C4.8655667 56.38764384 -4.41163154 69.35659566 -3.67089844 90.11083984 C-3.05472468 99.41506364 2.49625574 107.48962585 9.0234375 113.8515625 C17.51834555 120.90332015 29.23198003 123.64266328 40.078125 123.49609375 C51.58830562 122.15368238 60.98999985 115.66641448 68.4609375 107.1015625 C77.16574815 95.45428064 76.80084387 80.95700918 76.72167969 67.02563477 C76.71099635 64.8013147 76.72162692 62.57781088 76.734375 60.35351562 C76.74222892 52.84857619 76.43025938 45.45471683 75.5703125 37.99609375 C75.49282776 37.32068039 75.41534302 36.64526703 75.33551025 35.9493866 C74.42106376 28.7606231 73.30932469 20.78439022 68.4609375 15.1015625 C63.95998794 11.64164889 59.23371263 10.40870645 53.6015625 10.734375 C42.46722019 12.64428043 32.25112952 24.86693294 25.66796875 33.32421875 Z " fill="#CBEFAD" transform="translate(79.5390625,32.8984375)"/>
<path d="M0 0 C6.83892051 3.48310503 11.90012871 8.79024564 14.30859375 16.11328125 C15.4307964 24.4648315 14.16968046 31.19068657 9.30859375 38.11328125 C7.40444105 40.18691351 5.66831879 41.49097029 3.30859375 43.11328125 C2.57125 43.64050781 1.83390625 44.16773438 1.07421875 44.7109375 C-4.85372847 47.71677515 -13.17855989 47.1834855 -19.4609375 45.26953125 C-26.19719167 41.87271484 -30.34056467 36.55178708 -33.06640625 29.61328125 C-34.50349045 21.56560971 -33.82499761 16.17426846 -29.69140625 9.11328125 C-27.44140625 6.36328125 -27.44140625 6.36328125 -24.69140625 4.11328125 C-24.16160156 3.64792969 -23.63179687 3.18257813 -23.0859375 2.703125 C-16.43783236 -2.38572307 -7.80732347 -2.57222413 0 0 Z " fill="#FBFDF9" transform="translate(126.69140625,88.88671875)"/>
<path d="M0 0 C6.83892051 3.48310503 11.90012871 8.79024564 14.30859375 16.11328125 C15.4307964 24.4648315 14.16968046 31.19068657 9.30859375 38.11328125 C7.40444105 40.18691351 5.66831879 41.49097029 3.30859375 43.11328125 C2.57125 43.64050781 1.83390625 44.16773438 1.07421875 44.7109375 C-4.85372847 47.71677515 -13.17855989 47.1834855 -19.4609375 45.26953125 C-26.19719167 41.87271484 -30.34056467 36.55178708 -33.06640625 29.61328125 C-34.50349045 21.56560971 -33.82499761 16.17426846 -29.69140625 9.11328125 C-27.44140625 6.36328125 -27.44140625 6.36328125 -24.69140625 4.11328125 C-24.16160156 3.64792969 -23.63179687 3.18257813 -23.0859375 2.703125 C-16.43783236 -2.38572307 -7.80732347 -2.57222413 0 0 Z M-24.69140625 9.11328125 C-26.30975501 11.4055465 -27.46612165 13.56468928 -28.69140625 16.11328125 C-29.02140625 16.77328125 -29.35140625 17.43328125 -29.69140625 18.11328125 C-30.45179858 25.21027629 -28.61804416 30.17742862 -24.69140625 36.11328125 C-20.23059538 40.89038433 -16.58020295 42.32112344 -10.12890625 42.55078125 C-4.07739214 42.49492112 -0.21689189 41.73070833 4.53125 37.9375 C9.07176248 33.27723774 10.51772947 28.96153021 10.74609375 22.48828125 C10.49079871 16.87179034 9.50490059 13.27365669 5.3984375 9.234375 C-0.93097876 3.54823879 -4.51313966 2.63641021 -13.12890625 2.70703125 C-18.34736059 3.30211815 -21.29378008 5.18504344 -24.69140625 9.11328125 Z " fill="#CBEFAD" transform="translate(126.69140625,88.88671875)"/>
<path d="M0 0 C1.65 0 3.3 0 5 0 C4.690625 0.886875 4.38125 1.77375 4.0625 2.6875 C2.42489586 8.30877947 2.33225589 14.18552198 2 20 C1.67 20 1.34 20 1 20 C0.67 16.37 0.34 12.74 0 9 C-0.33 10.65 -0.66 12.3 -1 14 C-1.33 14 -1.66 14 -2 14 C-2.1799928 8.78020872 -1.97094808 4.92737019 0 0 Z " fill="#D0F1B7" transform="translate(74,101)"/>
<path d="M0 0 C2.30821663 3.46232494 2.27000989 4.91798316 2.25 9 C2.25773438 10.5778125 2.25773438 10.5778125 2.265625 12.1875 C2 15 2 15 0 18 C-0.66 18 -1.32 18 -2 18 C-2.66 18.33 -3.32 18.66 -4 19 C-3.34 14.38 -2.68 9.76 -2 5 C-1.67 5 -1.34 5 -1 5 C-0.67 7.64 -0.34 10.28 0 13 C0 8.71 0 4.42 0 0 Z " fill="#D4F0BB" transform="translate(139,102)"/>
<path d="M0 0 C0.33 0 0.66 0 1 0 C1 1.65 1 3.3 1 5 C1.99 5 2.98 5 4 5 C4.66 8.96 5.32 12.92 6 17 C5.34 17 4.68 17 4 17 C3.34 14.03 2.68 11.06 2 8 C1.34 8.66 0.68 9.32 0 10 C0 6.7 0 3.4 0 0 Z " fill="#D4F2BE" transform="translate(26,107)"/>
<path d="M0 0 C6.93 0.495 6.93 0.495 14 1 C14 1.33 14 1.66 14 2 C11.69 2.33 9.38 2.66 7 3 C7 3.66 7 4.32 7 5 C5.02 5 3.04 5 1 5 C1.66 4.01 2.32 3.02 3 2 C2.01 1.34 1.02 0.68 0 0 Z " fill="#D6F2C0" transform="translate(107,155)"/>
<path d="M0 0 C2.97 0 5.94 0 9 0 C9 0.33 9 0.66 9 1 C7.02 1.33 5.04 1.66 3 2 C4.32 2.66 5.64 3.32 7 4 C2.545 4.495 2.545 4.495 -2 5 C-1.34 3.35 -0.68 1.7 0 0 Z " fill="#D5F0BA" transform="translate(131,40)"/>
<path d="M0 0 C0.66 0.33 1.32 0.66 2 1 C1.01 3.31 0.02 5.62 -1 8 C-1.99 8 -2.98 8 -4 8 C-4.99 8.495 -4.99 8.495 -6 9 C-5.34 7.02 -4.68 5.04 -4 3 C-2.68 3 -1.36 3 0 3 C0 2.01 0 1.02 0 0 Z " fill="#D1EFB4" transform="translate(49,50)"/>
<path d="M0 0 C0.99 0 1.98 0 3 0 C2.67 1.98 2.34 3.96 2 6 C1.01 5.67 0.02 5.34 -1 5 C-0.67 3.35 -0.34 1.7 0 0 Z " fill="#C7EDA7" transform="translate(153,129)"/>
<path d="M0 0 C0.99 0 1.98 0 3 0 C2.67 2.64 2.34 5.28 2 8 C1.34 7.67 0.68 7.34 0 7 C0 4.69 0 2.38 0 0 Z " fill="#C8EFA2" transform="translate(33,83)"/>
<path d="M0 0 C0.99 0.495 0.99 0.495 2 1 C2.59355614 3.64860427 2.74209269 6.29197322 3 9 C1.5 7.875 1.5 7.875 0 6 C-0.1875 2.8125 -0.1875 2.8125 0 0 Z " fill="#C5EE9D" transform="translate(153,53)"/>
</svg>
